<svg width="31" height="20" viewBox="0 0 31 20" fill="none" xmlns="http://www.w3.org/2000/svg">
<path d="M30.0506 3.33671C30.0497 3.96271 29.8724 4.57583 29.539 5.106C29.2056 5.63617 28.7295 6.06202 28.1651 6.33487C28.1577 6.33769 28.1511 6.3414 28.1437 6.34407C28.0779 6.3718 28.0111 6.40056 27.9461 6.43022C26.2062 7.22275 24.7916 8.58772 23.939 10.2968C23.0864 12.0058 22.8476 13.9553 23.2624 15.8191C23.2772 15.8756 23.2902 15.932 23.3022 15.9887C23.3031 15.9924 23.3041 15.997 23.305 16.0007C23.4298 16.6119 23.3803 17.2457 23.1621 17.8302C22.9439 18.4147 22.5658 18.9264 22.0707 19.3069C21.5757 19.6875 20.9836 19.9217 20.3618 19.9829C19.74 20.0441 19.1135 19.9299 18.5535 19.6533C17.9935 19.3766 17.5225 18.9486 17.1941 18.4179C16.8657 17.8872 16.6931 17.2752 16.696 16.6515C16.6988 16.0277 16.8769 15.4173 17.21 14.8896C17.5431 14.3619 18.018 13.9381 18.5804 13.6665C18.6536 13.6313 18.729 13.5988 18.8049 13.5683C20.543 12.7752 21.9559 11.4106 22.8074 9.70262C23.6589 7.9946 23.8974 6.04659 23.4831 4.18409V4.18217C23.4665 4.11736 23.4506 4.05256 23.4377 3.98686C23.3464 3.53039 23.3519 3.05989 23.4538 2.60567C23.5557 2.15144 23.7518 1.72358 24.0294 1.34962C24.3071 0.975648 24.6601 0.663866 25.0657 0.434372C25.4714 0.204878 25.9207 0.0627462 26.3847 0.0171373C26.8487 -0.0284715 27.3172 0.0234543 27.7599 0.169563C28.2026 0.315673 28.6097 0.552738 28.955 0.865474C29.3004 1.17821 29.5763 1.55968 29.765 1.98533C29.9537 2.41099 30.051 2.87138 30.0506 3.33686V3.33671Z" fill="#00FFFF"/>
<path d="M6.23007 14.9988C6.53744 15.53 6.69199 16.1356 6.67672 16.7489C6.66144 17.3622 6.47693 17.9594 6.1435 18.4747C5.81006 18.99 5.34065 19.4034 4.78694 19.6694C4.23324 19.9355 3.61672 20.0438 3.0053 19.9825C2.39387 19.9212 1.81125 19.6926 1.32161 19.322C0.83196 18.9513 0.454274 18.4529 0.230154 17.8817C0.00603435 17.3105 -0.0558295 16.6886 0.0513723 16.0846C0.158574 15.4805 0.430686 14.9177 0.837738 14.4581C0.838629 14.4572 0.838626 14.4562 0.840558 14.4553C0.900869 14.3861 0.964847 14.3194 1.03249 14.2553C1.03338 14.2544 1.03531 14.2535 1.0362 14.2516C1.93955 13.261 2.50396 12.0092 2.64784 10.6773C2.79172 9.34543 2.5076 8.00236 1.83658 6.84226C1.60588 6.44176 1.3312 6.06817 1.01763 5.72839L1.01109 5.72186C0.951674 5.66357 0.893292 5.60322 0.838626 5.54034C0.836844 5.53945 0.835805 5.53754 0.834914 5.53665C0.409763 5.05539 0.132783 4.46185 0.0372283 3.8273C-0.0583267 3.19275 0.0316044 2.54417 0.296224 1.95939C0.560843 1.37462 0.988905 0.878511 1.52902 0.530642C2.06913 0.182774 2.69834 -0.00207023 3.3411 -0.00170845C3.98386 -0.00134668 4.61286 0.184212 5.15258 0.532688C5.69229 0.881164 6.11979 1.37774 6.38375 1.96281C6.6477 2.54789 6.7369 3.19659 6.64063 3.83103C6.54436 4.46547 6.26671 5.05868 5.84102 5.53945C5.84013 5.54034 5.84013 5.54124 5.8382 5.54227C5.77789 5.61148 5.71391 5.67817 5.64627 5.74233C5.64538 5.74322 5.64345 5.74411 5.64256 5.74604C4.73923 6.73665 4.17484 7.98838 4.03096 9.32027C3.88708 10.6522 4.17117 11.9952 4.84218 13.1553C5.07289 13.5558 5.34757 13.9294 5.66113 14.2692L5.66766 14.2756C5.72708 14.334 5.78547 14.3942 5.84013 14.4571C5.84191 14.458 5.84295 14.4599 5.84384 14.4608C5.99004 14.627 6.11942 14.8072 6.23007 14.9988Z" fill="white"/>
<path d="M15.0254 6.21944C14.4933 6.52629 13.8867 6.6806 13.2724 6.66535C12.6581 6.6501 12.0599 6.46589 11.5437 6.13302C11.0276 5.80015 10.6134 5.33152 10.3469 4.77874C10.0804 4.22597 9.97191 3.6105 10.0333 3.0001C10.0947 2.38971 10.3237 1.80807 10.695 1.31925C11.0663 0.83043 11.5655 0.453399 12.1377 0.229657C12.7098 0.00591513 13.3328 -0.0558579 13.9379 0.0511631C14.5429 0.158184 15.1067 0.429846 15.567 0.836212C15.5679 0.837101 15.569 0.83709 15.5699 0.839018C15.6392 0.899128 15.706 0.962994 15.7702 1.03062C15.7711 1.03151 15.772 1.03344 15.774 1.03433C16.7663 1.93614 18.0201 2.49959 19.3542 2.64322C20.6884 2.78686 22.0337 2.50324 23.1958 1.83337C23.597 1.60306 23.9712 1.32884 24.3115 1.01579L24.3181 1.00927C24.3764 0.949956 24.4369 0.891673 24.4999 0.837099C24.5008 0.835319 24.5027 0.834277 24.5036 0.833388C24.9857 0.408954 25.5802 0.132437 26.2158 0.0370429C26.8514 -0.0583509 27.5011 0.031433 28.0869 0.295606C28.6727 0.559779 29.1696 0.987128 29.518 1.52633C29.8665 2.06553 30.0517 2.69367 30.0513 3.33535C30.0509 3.97703 29.8651 4.60496 29.516 5.14377C29.1669 5.68258 28.6695 6.10935 28.0835 6.37286C27.4974 6.63638 26.8476 6.72544 26.2121 6.62933C25.5766 6.53322 24.9824 6.25602 24.5008 5.83104C24.4999 5.83015 24.499 5.83017 24.498 5.82824C24.4286 5.76813 24.3618 5.70426 24.2976 5.63664C24.2967 5.63575 24.2958 5.63382 24.2938 5.63293C23.3016 4.73112 22.0477 4.16767 20.7136 4.02403C19.3794 3.8804 18.0341 4.16401 16.872 4.83388C16.4709 5.06421 16.0966 5.33843 15.7563 5.65146L15.7497 5.65798C15.6914 5.7173 15.6309 5.77558 15.5679 5.83016C15.567 5.83194 15.5651 5.83298 15.5642 5.83387C15.3978 5.97982 15.2173 6.10898 15.0254 6.21944Z" fill="#00FFFF"/>
</svg>
