<svg width="129" height="41" viewBox="0 0 129 41" fill="none" xmlns="http://www.w3.org/2000/svg">
<path d="M125.31 20.0737V2.14859H129V20.0737H125.31ZM117.744 20.0737L115.746 15.3057H110.632L111.922 12.052H114.385L111.962 6.28305L107.763 16.5763L106.336 20.0737H102.519L110.145 2.14859H113.932L121.722 20.0737H117.744ZM68.5532 20.0737V2.14859H80.5057V5.37847H72.2204V9.33814H80.0886V12.6777H72.1823V20.0737H68.5532ZM54.7431 20.0737V13.8L47.8481 2.14859H51.8557L56.6494 10.3435L61.1573 2.14859H65.0379L58.4325 13.7986V20.0737H54.7431ZM84.5355 20.0737V2.14859H91.6204C97.5415 2.14859 100.542 5.00365 100.542 10.6345C100.542 16.8981 97.5415 20.073 91.6204 20.073L84.5355 20.0737ZM88.2263 16.8201H91.6204C95.14 16.8201 96.8521 14.7977 96.8521 10.6353C96.8521 7.11438 95.1392 5.40367 91.6204 5.40367H88.2256L88.2263 16.8201Z" fill="#0D0B29"/>
<path d="M22.1872 34.7041H33.9082C30.6948 37.7255 26.5754 39.6039 22.1872 40.049V34.7041ZM6.34245 34.7041H18.0656V40.049C13.6765 39.6051 9.55603 37.7265 6.34245 34.7041ZM22.1872 30.5926V25.8132H39.4172C38.9145 27.4942 38.1916 29.1013 37.2672 30.5926H22.1872ZM2.98055 30.5926C2.05959 29.1003 1.33892 27.4934 0.837036 25.8132H18.067V30.5926H2.98055Z" fill="#65C4FF"/>
<path d="M22.1865 21.7013V18.6819L34.6829 6.21204C38.2618 9.93929 40.2578 14.9079 40.2521 20.0752C40.2521 20.6198 40.2278 21.1631 40.1848 21.6992L22.1865 21.7013ZM0.065887 21.7013C0.0228872 21.1652 1.21045e-05 20.6226 1.21045e-05 20.0773C-0.00567018 14.9104 1.98944 9.94206 5.56701 6.21414L18.0657 18.6842V21.7034L0.065887 21.7013ZM8.71387 3.5396C12.0699 1.22755 16.0507 -0.007111 20.1261 3.08092e-05C24.2013 -0.00656568 28.1819 1.22804 31.5382 3.5396L20.1261 14.9231L8.71387 3.5396Z" fill="#1866ED"/>
<path d="M59.9045 28.2668V28.7885H55.0598V32.0916H59.7074V32.6134H55.0598V36.555H54.45V28.2668H59.9045ZM66.2154 28.2668V36.5557H65.6055V28.2668H66.2154ZM72.4102 36.5536V28.2668H73.1943L78.742 35.5223V28.2668H79.2938V36.5557H78.8L72.9614 28.9526V36.5557L72.4102 36.5536ZM85.1231 36.5536H84.4688L88.2306 28.2668H88.9566L92.7327 36.5536H92.0067L90.7754 33.7744H87.2839L87.5218 33.2526H90.5483L88.5538 28.7441L85.1231 36.5536ZM97.9113 36.5536V28.2668H98.6953L104.243 35.5244V28.2668H104.795V36.5557H104.301L98.4624 28.9526V36.5557L97.9113 36.5536ZM117.09 36.2669C116.337 36.4983 115.554 36.6154 114.766 36.6145C111.863 36.614 110.412 35.1747 110.412 32.2966C110.412 29.5733 111.864 28.2116 114.769 28.2116C115.557 28.2107 116.34 28.3278 117.093 28.5592V29.0809C116.378 28.8555 115.634 28.7384 114.885 28.7333C112.31 28.7333 111.022 29.9213 111.022 32.2973C111.022 34.8295 112.31 36.0956 114.885 36.0956C115.634 36.0906 116.378 35.9734 117.093 35.748L117.09 36.2669ZM128.361 28.2668V28.7885H123.516V32.0916H128.164V32.6134H123.516V36.0326H128.443V36.5543H122.906V28.2668H128.361Z" fill="#0D0B29"/>
</svg>
